<svg version="1.1" id="tree" xmlns="http://www.w3.org/2000/svg" xmlns:xlink="http://www.w3.org/1999/xlink" x="0px" y="0px"
	 width="189px" height="207px" viewBox="0 0 189 207" style="enable-background:new 0 0 189 207;" xml:space="preserve">

<defs>
<style type="text/css">

.st0{fill:#240003;stroke:#000209;stroke-miterlimit:10;}
	.st1{fill:#0A9400;stroke:#000209;stroke-width:2;stroke-miterlimit:10;}
	.st2{fill:#FFFFFF;stroke:#000209;stroke-width:3;stroke-miterlimit:10;}


    .st3 {
	stroke-dasharray: 2000;
	stroke-dashoffset: 0;
	fill: green;
	transition: 8s;
	-webkit-animation: st 8s linear infinite alternate;
	-o-animation: st 8s linear infinite alternate;
	-moz-animation: st 8s linear infinite alternate;
	animation: st 8s linear infinite alternate;
}

@-webkit-keyframes st {
  from {
    stroke-dashoffset: 2000; 
   }
  to {
    stroke-dashoffset: 0; 
    } 

    0%   {fill: #22FE03;}
    25%  {fill: #94CE03;}
    50%  {fill: #6FCE03;}
    100% {fill: green;}

}

     .st2 {
	stroke-dasharray: 2000;
	stroke-dashoffset: 0;
	-webkit-animation: sts 8s linear forwards;
	-o-animation: sts 8s linear forwards;
	-moz-animation: sts 8s linear forwards;
	animation: sts 8s linear forwards;


}

@-webkit-keyframes sts {
  from {
    stroke-dashoffset: 2000; }
  to {
    stroke-dashoffset: 0; } 
 }

</style>

</defs>

<symbol  id="Home" viewBox="-145.249 -96.44 290.497 192.88">
	<path class="st1" d="M142.731,15.738l-51.77,28.646v47.392H53.975V64.853L-0.004,94.726l-142.728-78.98l22.442-21.314l15.379,8.51
		V-94.94h209.83V2.934l15.37-8.503L142.731,15.738z M84.371-80.047H36.99v56.602h-73.972v-56.602h-47.381v92.464L0.003,59.115
		L84.37,12.417L84.371-80.047L84.371-80.047z"/>
</symbol>
<use xlink:href="#Home"  width="290.497" height="192.88" id="XMLID_1_" x="-145.249" y="-96.44" transform="matrix(1.2537 0 0 -1.3542 204.9072 85.4019)" style="display:none;overflow:visible;"/>
<polygon class="st0" points="108,198.5 72,198.5 78,191.5 72,135.5 108,135.5 102,191.5 "/>
<g>
	<path class="st3" d="M126,150.5c-6.229,0-12.313-1.727-17.594-4.992l-1.374-0.85l-1.341,0.902
		c-4.789,3.23-10.389,4.938-16.191,4.938c-5.605,0-11.05-1.608-15.745-4.651l-1.304-0.847l-1.335,0.795
		C65.95,148.874,60.031,150.5,54,150.5c-18.472,0-33.5-15.027-33.5-33.5c0-9.695,4.208-18.914,11.543-25.289l1.23-1.069
		l-0.482-1.557c-0.856-2.772-1.291-5.66-1.291-8.585c0-14.109,10.074-26.117,23.954-28.554l1.611-0.283l0.386-1.59
		C61.105,35.016,74.49,24.5,90,24.5c16.57,0,30.482,11.859,33.078,28.199l0.201,1.271l1.15,0.574
		c9.913,4.948,16.07,14.894,16.07,25.956c0,1.394-0.104,2.817-0.311,4.23l-0.256,1.754l1.569,0.822
		C152.604,93.115,159.5,104.492,159.5,117C159.5,135.473,144.473,150.5,126,150.5z"/>
	<path class="st2" d="M90,27c7.423,0,14.604,2.664,20.216,7.5c5.56,4.789,9.249,11.391,10.394,18.591l0.404,2.541l2.301,1.149
		C132.373,61.302,138,70.391,138,80.5c0,1.273-0.096,2.575-0.284,3.869l-0.513,3.508l3.143,1.644
		C150.618,94.897,157,105.426,157,117c0,17.094-13.906,31-31,31c-5.766,0-11.395-1.598-16.279-4.618l-2.746-1.7l-2.68,1.808
		C99.919,146.439,94.803,148,89.5,148c-5.122,0-10.096-1.471-14.385-4.25l-2.608-1.689l-2.67,1.59C65.058,146.495,59.581,148,54,148
		c-17.093,0-31-13.906-31-31c0-8.973,3.894-17.502,10.684-23.402l2.46-2.138l-0.963-3.114C34.397,85.814,34,83.174,34,80.5
		c0-12.892,9.205-23.865,21.886-26.091l3.223-0.566l0.771-3.18C63.262,36.73,75.647,27,90,27 M90,22
		c-16.947,0-31.151,11.714-34.978,27.484C40.238,52.079,29,64.973,29,80.5c0,3.246,0.492,6.377,1.404,9.324
		C22.809,96.424,18,106.146,18,117c0,19.882,16.118,36,36,36c6.722,0,13.01-1.848,18.395-5.055C77.321,151.139,83.191,153,89.5,153
		c6.516,0,12.568-1.979,17.591-5.366C112.587,151.033,119.063,153,126,153c19.883,0,36-16.117,36-36
		c0-13.868-7.846-25.896-19.337-31.909C142.882,83.592,143,82.06,143,80.5c0-12.348-7.107-23.029-17.453-28.193
		C122.818,35.13,107.945,22,90,22L90,22z"/>
</g>
</svg>
